{
    "asset" : {
        "generator" : "Khronos glTF Blender I/O v1.6.16",
        "version" : "2.0"
    },
    "extensionsUsed" : [
        "KHR_materials_clearcoat",
        "KHR_materials_transmission"
    ],
    "scene" : 0,
    "scenes" : [
        {
            "name" : "Scene",
            "nodes" : [
                0
            ]
        }
    ],
    "nodes" : [
        {
            "mesh" : 0,
            "name" : "Cube",
            "scale" : [
                4,
                5,
                1.5
            ],
            "translation" : [
                0,
                5.5,
                0
            ]
        }
    ],
    "materials" : [
        {
            "doubleSided" : true,
            "name" : "Material",
            "pbrMetallicRoughness" : {
                "baseColorFactor" : [
                    0.4385438859462738,
                    0.3326663076877594,
                    0.23195526003837585,
                    1
                ],
                "metallicFactor" : 0,
                "roughnessFactor" : 0.4000000059604645
            }
        },
        {
            "doubleSided" : true,
            "emissiveFactor" : [
                0.22137455642223358,
                0.207197904586792,
                0.06697998195886612
            ],
            "extensions" : {
                "KHR_materials_clearcoat" : {
                    "clearcoatFactor" : 0.7941176295280457,
                    "clearcoatRoughnessFactor" : 0.029999999329447746
                },
                "KHR_materials_transmission" : {
                    "transmissionFactor" : 0.23529411852359772
                }
            },
            "name" : "Material.001",
            "pbrMetallicRoughness" : {
                "baseColorFactor" : [
                    0.800000011920929,
                    0.800000011920929,
                    0.800000011920929,
                    1
                ],
                "metallicFactor" : 0,
                "roughnessFactor" : 0.16911765933036804
            }
        }
    ],
    "meshes" : [
        {
            "name" : "Cube",
            "primitives" : [
                {
                    "attributes" : {
                        "POSITION" : 0,
                        "NORMAL" : 1,
                        "TEXCOORD_0" : 2
                    },
                    "indices" : 3,
                    "material" : 0
                },
                {
                    "attributes" : {
                        "POSITION" : 4,
                        "NORMAL" : 5,
                        "TEXCOORD_0" : 6
                    },
                    "indices" : 7,
                    "material" : 1
                }
            ]
        }
    ],
    "accessors" : [
        {
            "bufferView" : 0,
            "componentType" : 5126,
            "count" : 3063,
            "max" : [
                1.012739658355713,
                1.0150903463363647,
                1.8823333978652954
            ],
            "min" : [
                -1.0169222354888916,
                -1.0001002550125122,
                -1.9176666736602783
            ],
            "type" : "VEC3"
        },
        {
            "bufferView" : 1,
            "componentType" : 5126,
            "count" : 3063,
            "type" : "VEC3"
        },
        {
            "bufferView" : 2,
            "componentType" : 5126,
            "count" : 3063,
            "type" : "VEC2"
        },
        {
            "bufferView" : 3,
            "componentType" : 5123,
            "count" : 5040,
            "type" : "SCALAR"
        },
        {
            "bufferView" : 4,
            "componentType" : 5126,
            "count" : 392,
            "max" : [
                0.9870056509971619,
                0.9882333874702454,
                1.536454200744629
            ],
            "min" : [
                -0.9891162514686584,
                -0.976615309715271,
                -1.6643333435058594
            ],
            "type" : "VEC3"
        },
        {
            "bufferView" : 5,
            "componentType" : 5126,
            "count" : 392,
            "type" : "VEC3"
        },
        {
            "bufferView" : 6,
            "componentType" : 5126,
            "count" : 392,
            "type" : "VEC2"
        },
        {
            "bufferView" : 7,
            "componentType" : 5123,
            "count" : 588,
            "type" : "SCALAR"
        }
    ],
    "bufferViews" : [
        {
            "buffer" : 0,
            "byteLength" : 36756,
            "byteOffset" : 0
        },
        {
            "buffer" : 0,
            "byteLength" : 36756,
            "byteOffset" : 36756
        },
        {
            "buffer" : 0,
            "byteLength" : 24504,
            "byteOffset" : 73512
        },
        {
            "buffer" : 0,
            "byteLength" : 10080,
            "byteOffset" : 98016
        },
        {
            "buffer" : 0,
            "byteLength" : 4704,
            "byteOffset" : 108096
        },
        {
            "buffer" : 0,
            "byteLength" : 4704,
            "byteOffset" : 112800
        },
        {
            "buffer" : 0,
            "byteLength" : 3136,
            "byteOffset" : 117504
        },
        {
            "buffer" : 0,
            "byteLength" : 1176,
            "byteOffset" : 120640
        }
    ],
    "buffers" : [
        {
            "byteLength" : 121816,
            "uri" : "data:application/octet-stream;base64,"
        }
    ]
}
