{
    "asset" : {
        "generator" : "Khronos glTF Blender I/O v1.6.16",
        "version" : "2.0"
    },
    "extensionsUsed" : [
        "KHR_materials_clearcoat",
        "KHR_materials_transmission"
    ],
    "scene" : 0,
    "scenes" : [
        {
            "name" : "Scene",
            "nodes" : [
                0,
                1,
                2,
                3,
                4,
                5
            ]
        }
    ],
    "nodes" : [
        {
            "mesh" : 0,
            "name" : "Cube",
            "scale" : [
                0.19999998807907104,
                0.05110001564025879,
                1.6000001430511475
            ],
            "translation" : [
                0,
                0.2900000214576721,
                -0.8200000524520874
            ]
        },
        {
            "mesh" : 1,
            "name" : "Cube.003",
            "scale" : [
                0.2239999771118164,
                0.04000002145767212,
                0.17999999225139618
            ],
            "translation" : [
                0,
                0.12000001221895218,
                0.6000000238418579
            ]
        },
        {
            "mesh" : 2,
            "name" : "Cube.004",
            "rotation" : [
                0.16504760086536407,
                0,
                0,
                0.9862856268882751
            ],
            "scale" : [
                0.2799999713897705,
                0.08068729192018509,
                0.5478748679161072
            ],
            "translation" : [
                0,
                0.010000012814998627,
                1.9400001764297485
            ]
        },
        {
            "mesh" : 3,
            "name" : "Torus",
            "rotation" : [
                0.06162842735648155,
                0.06162842735648155,
                -0.704416036605835,
                0.7044160962104797
            ],
            "scale" : [
                0.7200000286102295,
                1.2000000476837158,
                1.6800000667572021
            ],
            "translation" : [
                0,
                0.020000001415610313,
                0.940000057220459
            ]
        },
        {
            "mesh" : 4,
            "name" : "Cube.006",
            "rotation" : [
                -0.7660444974899292,
                0,
                0,
                0.6427876949310303
            ],
            "scale" : [
                -0.013440007343888283,
                0.016800010576844215,
                0.07559999823570251
            ],
            "translation" : [
                0,
                0.03000001609325409,
                0.9500000476837158
            ]
        },
        {
            "mesh" : 5,
            "name" : "Cube.001",
            "rotation" : [
                -0.13052619993686676,
                0,
                0,
                0.9914448857307434
            ],
            "scale" : [
                0.19999998807907104,
                0.05110001564025879,
                1.6000001430511475
            ],
            "translation" : [
                0,
                0.2900000214576721,
                -0.8200000524520874
            ]
        }
    ],
    "materials" : [
        {
            "doubleSided" : true,
            "extensions" : {
                "KHR_materials_clearcoat" : {
                    "clearcoatFactor" : 0.3602941036224365,
                    "clearcoatRoughnessFactor" : 0.029999999329447746
                },
                "KHR_materials_transmission" : {
                    "transmissionFactor" : 0.23529411852359772
                }
            },
            "name" : "Material",
            "pbrMetallicRoughness" : {
                "baseColorFactor" : [
                    0.03856793791055679,
                    0.03856793791055679,
                    0.039679087698459625,
                    1
                ],
                "metallicFactor" : 0.654411792755127,
                "roughnessFactor" : 0.7676470279693604
            }
        },
        {
            "doubleSided" : true,
            "name" : "Material.003",
            "pbrMetallicRoughness" : {
                "baseColorFactor" : [
                    0.08001144975423813,
                    0.045523565262556076,
                    0.02355523407459259,
                    1
                ],
                "metallicFactor" : 0,
                "roughnessFactor" : 0.5
            }
        },
        {
            "doubleSided" : true,
            "name" : "Material.002",
            "pbrMetallicRoughness" : {
                "baseColorFactor" : [
                    0.22322800755500793,
                    0.12213876843452454,
                    0.05951125547289848,
                    1
                ],
                "metallicFactor" : 0,
                "roughnessFactor" : 0.5
            }
        },
        {
            "doubleSided" : true,
            "name" : "Material.004",
            "pbrMetallicRoughness" : {
                "baseColorFactor" : [
                    0.26800069212913513,
                    0.2622435986995697,
                    0.27383098006248474,
                    1
                ],
                "metallicFactor" : 0,
                "roughnessFactor" : 0.5
            }
        },
        {
            "doubleSided" : true,
            "name" : "Material.005",
            "pbrMetallicRoughness" : {
                "baseColorFactor" : [
                    0.20952525734901428,
                    0.20507238805294037,
                    0.21403460204601288,
                    1
                ],
                "metallicFactor" : 0,
                "roughnessFactor" : 0.5
            }
        },
        {
            "doubleSided" : true,
            "extensions" : {
                "KHR_materials_clearcoat" : {
                    "clearcoatFactor" : 0.3602941036224365,
                    "clearcoatRoughnessFactor" : 0.029999999329447746
                },
                "KHR_materials_transmission" : {
                    "transmissionFactor" : 0.23529411852359772
                }
            },
            "name" : "Material.001",
            "pbrMetallicRoughness" : {
                "baseColorFactor" : [
                    0.09177613258361816,
                    0.09177609533071518,
                    0.09462550282478333,
                    1
                ],
                "metallicFactor" : 0.654411792755127,
                "roughnessFactor" : 0.7676470279693604
            }
        }
    ],
    "meshes" : [
        {
            "name" : "Cube",
            "primitives" : [
                {
                    "attributes" : {
                        "POSITION" : 0,
                        "NORMAL" : 1,
                        "TEXCOORD_0" : 2
                    },
                    "indices" : 3,
                    "material" : 0
                }
            ]
        },
        {
            "name" : "Cube.003",
            "primitives" : [
                {
                    "attributes" : {
                        "POSITION" : 4,
                        "NORMAL" : 5,
                        "TEXCOORD_0" : 6
                    },
                    "indices" : 7,
                    "material" : 1
                }
            ]
        },
        {
            "name" : "Cube.004",
            "primitives" : [
                {
                    "attributes" : {
                        "POSITION" : 8,
                        "NORMAL" : 9,
                        "TEXCOORD_0" : 10
                    },
                    "indices" : 11,
                    "material" : 2
                }
            ]
        },
        {
            "name" : "Torus",
            "primitives" : [
                {
                    "attributes" : {
                        "POSITION" : 12,
                        "NORMAL" : 13,
                        "TEXCOORD_0" : 14
                    },
                    "indices" : 15,
                    "material" : 3
                }
            ]
        },
        {
            "name" : "Cube.006",
            "primitives" : [
                {
                    "attributes" : {
                        "POSITION" : 16,
                        "NORMAL" : 17,
                        "TEXCOORD_0" : 18
                    },
                    "indices" : 19,
                    "material" : 4
                }
            ]
        },
        {
            "name" : "Cube.007",
            "primitives" : [
                {
                    "attributes" : {
                        "POSITION" : 20,
                        "NORMAL" : 21,
                        "TEXCOORD_0" : 22
                    },
                    "indices" : 23,
                    "material" : 5
                },
                {
                    "attributes" : {
                        "POSITION" : 24,
                        "NORMAL" : 25,
                        "TEXCOORD_0" : 26
                    },
                    "indices" : 27,
                    "material" : 0
                }
            ]
        }
    ],
    "accessors" : [
        {
            "bufferView" : 0,
            "componentType" : 5126,
            "count" : 50,
            "max" : [
                1,
                1,
                1
            ],
            "min" : [
                -1,
                -1,
                0.9736540913581848
            ],
            "type" : "VEC3"
        },
        {
            "bufferView" : 1,
            "componentType" : 5126,
            "count" : 50,
            "type" : "VEC3"
        },
        {
            "bufferView" : 2,
            "componentType" : 5126,
            "count" : 50,
            "type" : "VEC2"
        },
        {
            "bufferView" : 3,
            "componentType" : 5123,
            "count" : 84,
            "type" : "SCALAR"
        },
        {
            "bufferView" : 4,
            "componentType" : 5126,
            "count" : 322,
            "max" : [
                1,
                3.1421103477478027,
                1.0046288967132568
            ],
            "min" : [
                -1,
                -0.42500039935112,
                -5.709963321685791
            ],
            "type" : "VEC3"
        },
        {
            "bufferView" : 5,
            "componentType" : 5126,
            "count" : 322,
            "type" : "VEC3"
        },
        {
            "bufferView" : 6,
            "componentType" : 5126,
            "count" : 322,
            "type" : "VEC2"
        },
        {
            "bufferView" : 7,
            "componentType" : 5123,
            "count" : 492,
            "type" : "SCALAR"
        },
        {
            "bufferView" : 8,
            "componentType" : 5126,
            "count" : 154,
            "max" : [
                0.7872764468193054,
                3.0790321826934814,
                1.150942325592041
            ],
            "min" : [
                -0.7872764468193054,
                -4.6969404220581055,
                -2.213667869567871
            ],
            "type" : "VEC3"
        },
        {
            "bufferView" : 9,
            "componentType" : 5126,
            "count" : 154,
            "type" : "VEC3"
        },
        {
            "bufferView" : 10,
            "componentType" : 5126,
            "count" : 154,
            "type" : "VEC2"
        },
        {
            "bufferView" : 11,
            "componentType" : 5123,
            "count" : 204,
            "type" : "SCALAR"
        },
        {
            "bufferView" : 12,
            "componentType" : 5126,
            "count" : 160,
            "max" : [
                0.10999999940395355,
                0.009510564617812634,
                0.10999999940395355
            ],
            "min" : [
                -0.10999999940395355,
                -0.009510564617812634,
                -0.10999999940395355
            ],
            "type" : "VEC3"
        },
        {
            "bufferView" : 13,
            "componentType" : 5126,
            "count" : 160,
            "type" : "VEC3"
        },
        {
            "bufferView" : 14,
            "componentType" : 5126,
            "count" : 160,
            "type" : "VEC2"
        },
        {
            "bufferView" : 15,
            "componentType" : 5123,
            "count" : 240,
            "type" : "SCALAR"
        },
        {
            "bufferView" : 16,
            "componentType" : 5126,
            "count" : 56,
            "max" : [
                1,
                1,
                1
            ],
            "min" : [
                -1,
                -2.769385814666748,
                -1
            ],
            "type" : "VEC3"
        },
        {
            "bufferView" : 17,
            "componentType" : 5126,
            "count" : 56,
            "type" : "VEC3"
        },
        {
            "bufferView" : 18,
            "componentType" : 5126,
            "count" : 56,
            "type" : "VEC2"
        },
        {
            "bufferView" : 19,
            "componentType" : 5123,
            "count" : 84,
            "type" : "SCALAR"
        },
        {
            "bufferView" : 20,
            "componentType" : 5126,
            "count" : 216,
            "max" : [
                1,
                9.47776985168457,
                0.9710462689399719
            ],
            "min" : [
                -1,
                -8.902518272399902,
                -0.9850539565086365
            ],
            "type" : "VEC3"
        },
        {
            "bufferView" : 21,
            "componentType" : 5126,
            "count" : 216,
            "type" : "VEC3"
        },
        {
            "bufferView" : 22,
            "componentType" : 5126,
            "count" : 216,
            "type" : "VEC2"
        },
        {
            "bufferView" : 23,
            "componentType" : 5123,
            "count" : 342,
            "type" : "SCALAR"
        },
        {
            "bufferView" : 24,
            "componentType" : 5126,
            "count" : 24,
            "max" : [
                0.5,
                9.47776985168457,
                0.9710462689399719
            ],
            "min" : [
                -0.5,
                -7.260443687438965,
                -0.9685218930244446
            ],
            "type" : "VEC3"
        },
        {
            "bufferView" : 25,
            "componentType" : 5126,
            "count" : 24,
            "type" : "VEC3"
        },
        {
            "bufferView" : 26,
            "componentType" : 5126,
            "count" : 24,
            "type" : "VEC2"
        },
        {
            "bufferView" : 27,
            "componentType" : 5123,
            "count" : 36,
            "type" : "SCALAR"
        }
    ],
    "bufferViews" : [
        {
            "buffer" : 0,
            "byteLength" : 600,
            "byteOffset" : 0
        },
        {
            "buffer" : 0,
            "byteLength" : 600,
            "byteOffset" : 600
        },
        {
            "buffer" : 0,
            "byteLength" : 400,
            "byteOffset" : 1200
        },
        {
            "buffer" : 0,
            "byteLength" : 168,
            "byteOffset" : 1600
        },
        {
            "buffer" : 0,
            "byteLength" : 3864,
            "byteOffset" : 1768
        },
        {
            "buffer" : 0,
            "byteLength" : 3864,
            "byteOffset" : 5632
        },
        {
            "buffer" : 0,
            "byteLength" : 2576,
            "byteOffset" : 9496
        },
        {
            "buffer" : 0,
            "byteLength" : 984,
            "byteOffset" : 12072
        },
        {
            "buffer" : 0,
            "byteLength" : 1848,
            "byteOffset" : 13056
        },
        {
            "buffer" : 0,
            "byteLength" : 1848,
            "byteOffset" : 14904
        },
        {
            "buffer" : 0,
            "byteLength" : 1232,
            "byteOffset" : 16752
        },
        {
            "buffer" : 0,
            "byteLength" : 408,
            "byteOffset" : 17984
        },
        {
            "buffer" : 0,
            "byteLength" : 1920,
            "byteOffset" : 18392
        },
        {
            "buffer" : 0,
            "byteLength" : 1920,
            "byteOffset" : 20312
        },
        {
            "buffer" : 0,
            "byteLength" : 1280,
            "byteOffset" : 22232
        },
        {
            "buffer" : 0,
            "byteLength" : 480,
            "byteOffset" : 23512
        },
        {
            "buffer" : 0,
            "byteLength" : 672,
            "byteOffset" : 23992
        },
        {
            "buffer" : 0,
            "byteLength" : 672,
            "byteOffset" : 24664
        },
        {
            "buffer" : 0,
            "byteLength" : 448,
            "byteOffset" : 25336
        },
        {
            "buffer" : 0,
            "byteLength" : 168,
            "byteOffset" : 25784
        },
        {
            "buffer" : 0,
            "byteLength" : 2592,
            "byteOffset" : 25952
        },
        {
            "buffer" : 0,
            "byteLength" : 2592,
            "byteOffset" : 28544
        },
        {
            "buffer" : 0,
            "byteLength" : 1728,
            "byteOffset" : 31136
        },
        {
            "buffer" : 0,
            "byteLength" : 684,
            "byteOffset" : 32864
        },
        {
            "buffer" : 0,
            "byteLength" : 288,
            "byteOffset" : 33548
        },
        {
            "buffer" : 0,
            "byteLength" : 288,
            "byteOffset" : 33836
        },
        {
            "buffer" : 0,
            "byteLength" : 192,
            "byteOffset" : 34124
        },
        {
            "buffer" : 0,
            "byteLength" : 72,
            "byteOffset" : 34316
        }
    ],
    "buffers" : [
        {
            "byteLength" : 34388,
            "uri" : "data:application/octet-stream;base64,"
        }
    ]
}
