{
    "asset" : {
        "generator" : "Khronos glTF Blender I/O v1.6.16",
        "version" : "2.0"
    },
    "scene" : 0,
    "scenes" : [
        {
            "name" : "Scene",
            "nodes" : [
                0,
                1,
                2,
                3,
                4,
                5,
                6
            ]
        }
    ],
    "nodes" : [
        {
            "mesh" : 0,
            "name" : "Cube",
            "rotation" : [
                0,
                0,
                -0.1736481785774231,
                0.9848078489303589
            ],
            "scale" : [
                0.3999999761581421,
                1,
                0.19999998807907104
            ],
            "translation" : [
                -1.7138288021087646,
                -0.1599999964237213,
                0
            ]
        },
        {
            "mesh" : 1,
            "name" : "Cylinder",
            "rotation" : [
                0,
                0,
                -0.7071067690849304,
                0.7071068286895752
            ],
            "scale" : [
                0.3400000035762787,
                0.3400000035762787,
                0.3400000035762787
            ],
            "translation" : [
                -0.33000001311302185,
                0.690000057220459,
                0
            ]
        },
        {
            "mesh" : 2,
            "name" : "Cube.002",
            "scale" : [
                1,
                0.050000011920928955,
                0.21000003814697266
            ],
            "translation" : [
                -0.6000000238418579,
                -0.4100000858306885,
                0
            ]
        },
        {
            "mesh" : 3,
            "name" : "Cube.003",
            "scale" : [
                0.10000002384185791,
                0.0991077572107315,
                0.10000002384185791
            ],
            "translation" : [
                -0.6000000238418579,
                0,
                0
            ]
        },
        {
            "mesh" : 4,
            "name" : "Cube.004",
            "scale" : [
                1,
                0.050000011920928955,
                0.21000003814697266
            ],
            "translation" : [
                -0.6000000238418579,
                -3.4000003337860107,
                0
            ]
        },
        {
            "mesh" : 5,
            "name" : "Cylinder.001",
            "rotation" : [
                0,
                0,
                0.7071067690849304,
                0.7071068286895752
            ],
            "scale" : [
                0.18000000715255737,
                1.184399962425232,
                0.18000000715255737
            ],
            "translation" : [
                1.5,
                1,
                0
            ]
        },
        {
            "mesh" : 6,
            "name" : "Cylinder.002",
            "rotation" : [
                0,
                0,
                0.7071067690849304,
                0.7071068286895752
            ],
            "scale" : [
                0.14400000870227814,
                0.7580159902572632,
                0.11340000480413437
            ],
            "translation" : [
                1.0399999618530273,
                0.699999988079071,
                0
            ]
        }
    ],
    "materials" : [
        {
            "doubleSided" : true,
            "name" : "Material",
            "pbrMetallicRoughness" : {
                "baseColorFactor" : [
                    0.06997786462306976,
                    0.04250288009643555,
                    0.019382664933800697,
                    1
                ],
                "metallicFactor" : 0,
                "roughnessFactor" : 0.4000000059604645
            }
        },
        {
            "doubleSided" : true,
            "name" : "Material.001",
            "pbrMetallicRoughness" : {
                "baseColorFactor" : [
                    0.10702311247587204,
                    0.10946173220872879,
                    0.10461652278900146,
                    1
                ],
                "metallicFactor" : 0,
                "roughnessFactor" : 0.5
            }
        }
    ],
    "meshes" : [
        {
            "name" : "Cube",
            "primitives" : [
                {
                    "attributes" : {
                        "POSITION" : 0,
                        "NORMAL" : 1,
                        "TEXCOORD_0" : 2
                    },
                    "indices" : 3,
                    "material" : 0
                }
            ]
        },
        {
            "name" : "Cylinder",
            "primitives" : [
                {
                    "attributes" : {
                        "POSITION" : 4,
                        "NORMAL" : 5,
                        "TEXCOORD_0" : 6
                    },
                    "indices" : 7,
                    "material" : 1
                }
            ]
        },
        {
            "name" : "Cube.004",
            "primitives" : [
                {
                    "attributes" : {
                        "POSITION" : 8,
                        "NORMAL" : 9,
                        "TEXCOORD_0" : 10
                    },
                    "indices" : 11,
                    "material" : 1
                }
            ]
        },
        {
            "name" : "Cube.005",
            "primitives" : [
                {
                    "attributes" : {
                        "POSITION" : 12,
                        "NORMAL" : 13,
                        "TEXCOORD_0" : 14
                    },
                    "indices" : 15,
                    "material" : 1
                }
            ]
        },
        {
            "name" : "Cube.006",
            "primitives" : [
                {
                    "attributes" : {
                        "POSITION" : 16,
                        "NORMAL" : 17,
                        "TEXCOORD_0" : 18
                    },
                    "indices" : 19,
                    "material" : 1
                }
            ]
        },
        {
            "name" : "Cylinder.001",
            "primitives" : [
                {
                    "attributes" : {
                        "POSITION" : 20,
                        "NORMAL" : 21,
                        "TEXCOORD_0" : 22
                    },
                    "indices" : 23,
                    "material" : 1
                }
            ]
        },
        {
            "name" : "Cylinder.002",
            "primitives" : [
                {
                    "attributes" : {
                        "POSITION" : 24,
                        "NORMAL" : 25,
                        "TEXCOORD_0" : 26
                    },
                    "indices" : 27,
                    "material" : 1
                }
            ]
        }
    ],
    "accessors" : [
        {
            "bufferView" : 0,
            "componentType" : 5126,
            "count" : 351,
            "max" : [
                1.69455087184906,
                0.8435791730880737,
                1
            ],
            "min" : [
                -1.1316912174224854,
                -1.253751516342163,
                -1
            ],
            "type" : "VEC3"
        },
        {
            "bufferView" : 1,
            "componentType" : 5126,
            "count" : 351,
            "type" : "VEC3"
        },
        {
            "bufferView" : 2,
            "componentType" : 5126,
            "count" : 351,
            "type" : "VEC2"
        },
        {
            "bufferView" : 3,
            "componentType" : 5123,
            "count" : 780,
            "type" : "SCALAR"
        },
        {
            "bufferView" : 4,
            "componentType" : 5126,
            "count" : 192,
            "max" : [
                1,
                1,
                1
            ],
            "min" : [
                -1,
                -1,
                -1
            ],
            "type" : "VEC3"
        },
        {
            "bufferView" : 5,
            "componentType" : 5126,
            "count" : 192,
            "type" : "VEC3"
        },
        {
            "bufferView" : 6,
            "componentType" : 5126,
            "count" : 192,
            "type" : "VEC2"
        },
        {
            "bufferView" : 7,
            "componentType" : 5123,
            "count" : 372,
            "type" : "SCALAR"
        },
        {
            "bufferView" : 8,
            "componentType" : 5126,
            "count" : 304,
            "max" : [
                0.5451598167419434,
                11.557785987854004,
                1.092988133430481
            ],
            "min" : [
                -0.4153691828250885,
                -0.64000004529953,
                -1.092988133430481
            ],
            "type" : "VEC3"
        },
        {
            "bufferView" : 9,
            "componentType" : 5126,
            "count" : 304,
            "type" : "VEC3"
        },
        {
            "bufferView" : 10,
            "componentType" : 5126,
            "count" : 304,
            "type" : "VEC2"
        },
        {
            "bufferView" : 11,
            "componentType" : 5123,
            "count" : 564,
            "type" : "SCALAR"
        },
        {
            "bufferView" : 12,
            "componentType" : 5126,
            "count" : 263,
            "max" : [
                1.9415382146835327,
                1.2018005847930908,
                1
            ],
            "min" : [
                -2.0999999046325684,
                -3.584599256515503,
                -1
            ],
            "type" : "VEC3"
        },
        {
            "bufferView" : 13,
            "componentType" : 5126,
            "count" : 263,
            "type" : "VEC3"
        },
        {
            "bufferView" : 14,
            "componentType" : 5126,
            "count" : 263,
            "type" : "VEC2"
        },
        {
            "bufferView" : 15,
            "componentType" : 5123,
            "count" : 528,
            "type" : "SCALAR"
        },
        {
            "bufferView" : 16,
            "componentType" : 5126,
            "count" : 5402,
            "max" : [
                0.9611129760742188,
                92.34308624267578,
                0.9883764982223511
            ],
            "min" : [
                -1.0696789026260376,
                71.5430908203125,
                -0.9883764982223511
            ],
            "type" : "VEC3"
        },
        {
            "bufferView" : 17,
            "componentType" : 5126,
            "count" : 5402,
            "type" : "VEC3"
        },
        {
            "bufferView" : 18,
            "componentType" : 5126,
            "count" : 5402,
            "type" : "VEC2"
        },
        {
            "bufferView" : 19,
            "componentType" : 5123,
            "count" : 11340,
            "type" : "SCALAR"
        },
        {
            "bufferView" : 20,
            "componentType" : 5126,
            "count" : 156,
            "max" : [
                1,
                1,
                1
            ],
            "min" : [
                -1,
                -1,
                -1
            ],
            "type" : "VEC3"
        },
        {
            "bufferView" : 21,
            "componentType" : 5126,
            "count" : 156,
            "type" : "VEC3"
        },
        {
            "bufferView" : 22,
            "componentType" : 5126,
            "count" : 156,
            "type" : "VEC2"
        },
        {
            "bufferView" : 23,
            "componentType" : 5123,
            "count" : 276,
            "type" : "SCALAR"
        },
        {
            "bufferView" : 24,
            "componentType" : 5126,
            "count" : 160,
            "max" : [
                1.0000001192092896,
                1,
                1
            ],
            "min" : [
                -1,
                -1.5504894256591797,
                -1
            ],
            "type" : "VEC3"
        },
        {
            "bufferView" : 25,
            "componentType" : 5126,
            "count" : 160,
            "type" : "VEC3"
        },
        {
            "bufferView" : 26,
            "componentType" : 5126,
            "count" : 160,
            "type" : "VEC2"
        },
        {
            "bufferView" : 27,
            "componentType" : 5123,
            "count" : 276,
            "type" : "SCALAR"
        }
    ],
    "bufferViews" : [
        {
            "buffer" : 0,
            "byteLength" : 4212,
            "byteOffset" : 0
        },
        {
            "buffer" : 0,
            "byteLength" : 4212,
            "byteOffset" : 4212
        },
        {
            "buffer" : 0,
            "byteLength" : 2808,
            "byteOffset" : 8424
        },
        {
            "buffer" : 0,
            "byteLength" : 1560,
            "byteOffset" : 11232
        },
        {
            "buffer" : 0,
            "byteLength" : 2304,
            "byteOffset" : 12792
        },
        {
            "buffer" : 0,
            "byteLength" : 2304,
            "byteOffset" : 15096
        },
        {
            "buffer" : 0,
            "byteLength" : 1536,
            "byteOffset" : 17400
        },
        {
            "buffer" : 0,
            "byteLength" : 744,
            "byteOffset" : 18936
        },
        {
            "buffer" : 0,
            "byteLength" : 3648,
            "byteOffset" : 19680
        },
        {
            "buffer" : 0,
            "byteLength" : 3648,
            "byteOffset" : 23328
        },
        {
            "buffer" : 0,
            "byteLength" : 2432,
            "byteOffset" : 26976
        },
        {
            "buffer" : 0,
            "byteLength" : 1128,
            "byteOffset" : 29408
        },
        {
            "buffer" : 0,
            "byteLength" : 3156,
            "byteOffset" : 30536
        },
        {
            "buffer" : 0,
            "byteLength" : 3156,
            "byteOffset" : 33692
        },
        {
            "buffer" : 0,
            "byteLength" : 2104,
            "byteOffset" : 36848
        },
        {
            "buffer" : 0,
            "byteLength" : 1056,
            "byteOffset" : 38952
        },
        {
            "buffer" : 0,
            "byteLength" : 64824,
            "byteOffset" : 40008
        },
        {
            "buffer" : 0,
            "byteLength" : 64824,
            "byteOffset" : 104832
        },
        {
            "buffer" : 0,
            "byteLength" : 43216,
            "byteOffset" : 169656
        },
        {
            "buffer" : 0,
            "byteLength" : 22680,
            "byteOffset" : 212872
        },
        {
            "buffer" : 0,
            "byteLength" : 1872,
            "byteOffset" : 235552
        },
        {
            "buffer" : 0,
            "byteLength" : 1872,
            "byteOffset" : 237424
        },
        {
            "buffer" : 0,
            "byteLength" : 1248,
            "byteOffset" : 239296
        },
        {
            "buffer" : 0,
            "byteLength" : 552,
            "byteOffset" : 240544
        },
        {
            "buffer" : 0,
            "byteLength" : 1920,
            "byteOffset" : 241096
        },
        {
            "buffer" : 0,
            "byteLength" : 1920,
            "byteOffset" : 243016
        },
        {
            "buffer" : 0,
            "byteLength" : 1280,
            "byteOffset" : 244936
        },
        {
            "buffer" : 0,
            "byteLength" : 552,
            "byteOffset" : 246216
        }
    ],
    "buffers" : [
        {
            "byteLength" : 246768,
            "uri" : "data:application/octet-stream;base64,"
        }
    ]
}
