{
  "accessors": [
    {
      "bufferView": 1,
      "componentType": 5126,
      "count": 3513,
      "max": [
        0.16200000047683716,
        3.6659300327301025,
        0.3081499934196472
      ],
      "min": [
        -0.16200000047683716,
        -1.8007800579071045,
        -0.5087699890136719
      ],
      "type": "VEC3"
    },
    {
      "bufferView": 1,
      "byteOffset": 42156,
      "componentType": 5126,
      "count": 3513,
      "max": [
        1.0,
        1.0,
        1.0
      ],
      "min": [
        -1.0,
        -1.0,
        -1.0
      ],
      "type": "VEC3"
    },
    {
      "bufferView": 0,
      "componentType": 5125,
      "count": 6330,
      "type": "SCALAR"
    },
    {
      "bufferView": 1,
      "byteOffset": 84312,
      "componentType": 5126,
      "count": 144,
      "max": [
        0.05164000019431114,
        -0.7867400050163269,
        -0.25714001059532166
      ],
      "min": [
        -0.05164000019431114,
        -1.496250033378601,
        -0.5695300102233887
      ],
      "type": "VEC3"
    },
    {
      "bufferView": 1,
      "byteOffset": 86040,
      "componentType": 5126,
      "count": 144,
      "max": [
        1.0,
        0.9958390593528748,
        1.0
      ],
      "min": [
        -1.0,
        -0.9958390593528748,
        -0.9999964237213135
      ],
      "type": "VEC3"
    },
    {
      "bufferView": 0,
      "byteOffset": 25320,
      "componentType": 5125,
      "count": 276,
      "type": "SCALAR"
    },
    {
      "bufferView": 1,
      "byteOffset": 87768,
      "componentType": 5126,
      "count": 448,
      "max": [
        0.18605999648571014,
        2.926919937133789,
        0.1042499989271164
      ],
      "min": [
        -0.18605999648571014,
        -2.2327499389648438,
        -1.071720004081726
      ],
      "type": "VEC3"
    },
    {
      "bufferView": 1,
      "byteOffset": 93144,
      "componentType": 5126,
      "count": 448,
      "max": [
        1.0,
        1.0,
        1.0
      ],
      "min": [
        -1.0,
        -1.0,
        -0.9998961687088013
      ],
      "type": "VEC3"
    },
    {
      "bufferView": 0,
      "byteOffset": 26424,
      "componentType": 5125,
      "count": 636,
      "type": "SCALAR"
    },
    {
      "bufferView": 1,
      "byteOffset": 98520,
      "componentType": 5126,
      "count": 204,
      "max": [
        0.11604999750852585,
        1.0420500040054321,
        0.22583000361919403
      ],
      "min": [
        -0.11604999750852585,
        -0.7778000235557556,
        -0.08873999863862991
      ],
      "type": "VEC3"
    },
    {
      "bufferView": 1,
      "byteOffset": 100968,
      "componentType": 5126,
      "count": 204,
      "max": [
        1.0,
        1.0,
        1.0
      ],
      "min": [
        -1.0,
        -1.0,
        -1.0
      ],
      "type": "VEC3"
    },
    {
      "bufferView": 0,
      "byteOffset": 28968,
      "componentType": 5125,
      "count": 420,
      "type": "SCALAR"
    },
    {
      "bufferView": 1,
      "byteOffset": 103416,
      "componentType": 5126,
      "count": 24,
      "max": [
        0.10750000178813934,
        -0.0707399994134903,
        0.16040000319480896
      ],
      "min": [
        0.037450000643730164,
        -0.26183998584747314,
        0.10822000354528427
      ],
      "type": "VEC3"
    },
    {
      "bufferView": 1,
      "byteOffset": 103704,
      "componentType": 5126,
      "count": 24,
      "max": [
        1.0,
        1.0,
        1.0
      ],
      "min": [
        -1.0,
        -1.0,
        -1.0
      ],
      "type": "VEC3"
    },
    {
      "bufferView": 0,
      "byteOffset": 30648,
      "componentType": 5125,
      "count": 36,
      "type": "SCALAR"
    },
    {
      "bufferView": 1,
      "byteOffset": 103992,
      "componentType": 5126,
      "count": 824,
      "max": [
        0.16200000047683716,
        4.863269805908203,
        0.2704299986362457
      ],
      "min": [
        -0.16200000047683716,
        -1.8007800579071045,
        -0.5087699890136719
      ],
      "type": "VEC3"
    },
    {
      "bufferView": 1,
      "byteOffset": 113880,
      "componentType": 5126,
      "count": 824,
      "max": [
        1.0,
        1.0,
        1.0
      ],
      "min": [
        -1.0,
        -1.0,
        -1.0
      ],
      "type": "VEC3"
    },
    {
      "bufferView": 0,
      "byteOffset": 30792,
      "componentType": 5125,
      "count": 1542,
      "type": "SCALAR"
    },
    {
      "bufferView": 1,
      "byteOffset": 123768,
      "componentType": 5126,
      "count": 144,
      "max": [
        0.05164000019431114,
        -0.7867400050163269,
        -0.25714001059532166
      ],
      "min": [
        -0.05164000019431114,
        -1.496250033378601,
        -0.5695300102233887
      ],
      "type": "VEC3"
    },
    {
      "bufferView": 1,
      "byteOffset": 125496,
      "componentType": 5126,
      "count": 144,
      "max": [
        1.0,
        0.9958390593528748,
        1.0
      ],
      "min": [
        -1.0,
        -0.9958390593528748,
        -0.9999964237213135
      ],
      "type": "VEC3"
    },
    {
      "bufferView": 0,
      "byteOffset": 36960,
      "componentType": 5125,
      "count": 276,
      "type": "SCALAR"
    },
    {
      "bufferView": 1,
      "byteOffset": 127224,
      "componentType": 5126,
      "count": 448,
      "max": [
        0.18605999648571014,
        2.926919937133789,
        0.10525999963283539
      ],
      "min": [
        -0.18605999648571014,
        -4.797689914703369,
        -1.4947999715805054
      ],
      "type": "VEC3"
    },
    {
      "bufferView": 1,
      "byteOffset": 132600,
      "componentType": 5126,
      "count": 448,
      "max": [
        1.0,
        1.0,
        0.9999971389770508
      ],
      "min": [
        -1.0,
        -1.0,
        -0.9987093806266785
      ],
      "type": "VEC3"
    },
    {
      "bufferView": 0,
      "byteOffset": 38064,
      "componentType": 5125,
      "count": 672,
      "type": "SCALAR"
    },
    {
      "bufferView": 1,
      "byteOffset": 137976,
      "componentType": 5126,
      "count": 204,
      "max": [
        0.11604999750852585,
        1.0420500040054321,
        0.22583000361919403
      ],
      "min": [
        -0.11604999750852585,
        -0.7778000235557556,
        -0.08873999863862991
      ],
      "type": "VEC3"
    },
    {
      "bufferView": 1,
      "byteOffset": 140424,
      "componentType": 5126,
      "count": 204,
      "max": [
        1.0,
        1.0,
        1.0
      ],
      "min": [
        -1.0,
        -1.0,
        -1.0
      ],
      "type": "VEC3"
    },
    {
      "bufferView": 0,
      "byteOffset": 40752,
      "componentType": 5125,
      "count": 420,
      "type": "SCALAR"
    },
    {
      "bufferView": 1,
      "byteOffset": 142872,
      "componentType": 5126,
      "count": 24,
      "max": [
        0.10750000178813934,
        -0.0707399994134903,
        0.16040000319480896
      ],
      "min": [
        0.037450000643730164,
        -0.26183998584747314,
        0.10822000354528427
      ],
      "type": "VEC3"
    },
    {
      "bufferView": 1,
      "byteOffset": 143160,
      "componentType": 5126,
      "count": 24,
      "max": [
        1.0,
        1.0,
        1.0
      ],
      "min": [
        -1.0,
        -1.0,
        -1.0
      ],
      "type": "VEC3"
    },
    {
      "bufferView": 0,
      "byteOffset": 42432,
      "componentType": 5125,
      "count": 36,
      "type": "SCALAR"
    }
  ],
  "asset": {
    "extras": {
      "author": "Lowpolyguy12 (https://sketchfab.com/kauan893000)",
      "license": "CC-BY-4.0 (http://creativecommons.org/licenses/by/4.0/)",
      "source": "https://sketchfab.com/3d-models/low-poly-mossberg-500-mariner-c01043cdbf424c2f8a5ecd8490baa3d0",
      "title": "Low Poly Mossberg 500 Mariner"
    },
    "generator": "Sketchfab-11.19.0",
    "version": "2.0"
  },
  "bufferViews": [
    {
      "buffer": 0,
      "byteLength": 42576,
      "name": "floatBufferViews",
      "target": 34963
    },
    {
      "buffer": 0,
      "byteLength": 143448,
      "byteOffset": 42576,
      "byteStride": 12,
      "name": "floatBufferViews",
      "target": 34962
    }
  ],
  "buffers": [
    {
      "byteLength": 186024,
      "uri": "scene.bin"
    }
  ],
  "materials": [
    {
      "doubleSided": true,
      "name": "Material",
      "pbrMetallicRoughness": {
        "baseColorFactor": [
          0.6151760816574097,
          0.6151760816574097,
          0.6151760816574097,
          1.0
        ],
        "metallicFactor": 0.0,
        "roughnessFactor": 0.6
      }
    },
    {
      "doubleSided": true,
      "name": "Material.001",
      "pbrMetallicRoughness": {
        "baseColorFactor": [
          0.09083721041679382,
          0.09083721041679382,
          0.09083721041679382,
          1.0
        ],
        "metallicFactor": 0.0,
        "roughnessFactor": 0.6
      }
    },
    {
      "doubleSided": true,
      "name": "Material.002",
      "pbrMetallicRoughness": {
        "baseColorFactor": [
          0.04696119576692581,
          0.04696119576692581,
          0.04696119576692581,
          1.0
        ],
        "metallicFactor": 0.0,
        "roughnessFactor": 0.6
      }
    },
    {
      "doubleSided": true,
      "name": "Material.003",
      "pbrMetallicRoughness": {
        "baseColorFactor": [
          0.35883867740631104,
          0.35883867740631104,
          0.35883867740631104,
          1.0
        ],
        "metallicFactor": 0.0,
        "roughnessFactor": 0.6
      }
    },
    {
      "doubleSided": true,
      "name": "Material.004",
      "pbrMetallicRoughness": {
        "baseColorFactor": [
          0.42922443151474,
          0.42922443151474,
          0.42922443151474,
          1.0
        ],
        "metallicFactor": 0.0,
        "roughnessFactor": 0.6
      }
    },
    {
      "doubleSided": true,
      "name": "Material.009",
      "pbrMetallicRoughness": {
        "baseColorFactor": [
          0.6151760816574097,
          0.6151760816574097,
          0.6151760816574097,
          1.0
        ],
        "metallicFactor": 0.0,
        "roughnessFactor": 0.6
      }
    },
    {
      "doubleSided": true,
      "name": "Material.008",
      "pbrMetallicRoughness": {
        "baseColorFactor": [
          0.09083721041679382,
          0.09083721041679382,
          0.09083721041679382,
          1.0
        ],
        "metallicFactor": 0.0,
        "roughnessFactor": 0.6
      }
    },
    {
      "doubleSided": true,
      "name": "Material.007",
      "pbrMetallicRoughness": {
        "baseColorFactor": [
          0.04696119576692581,
          0.04696119576692581,
          0.04696119576692581,
          1.0
        ],
        "metallicFactor": 0.0,
        "roughnessFactor": 0.6
      }
    },
    {
      "doubleSided": true,
      "name": "Material.006",
      "pbrMetallicRoughness": {
        "baseColorFactor": [
          0.35883867740631104,
          0.35883867740631104,
          0.35883867740631104,
          1.0
        ],
        "metallicFactor": 0.0,
        "roughnessFactor": 0.6
      }
    },
    {
      "doubleSided": true,
      "name": "Material.005",
      "pbrMetallicRoughness": {
        "baseColorFactor": [
          0.42922443151474,
          0.42922443151474,
          0.42922443151474,
          1.0
        ],
        "metallicFactor": 0.0,
        "roughnessFactor": 0.6
      }
    }
  ],
  "meshes": [
    {
      "name": "Mossberg 500.001_0",
      "primitives": [
        {
          "attributes": {
            "NORMAL": 1,
            "POSITION": 0
          },
          "indices": 2,
          "material": 5,
          "mode": 4
        }
      ]
    },
    {
      "name": "Mossberg 500.001_1",
      "primitives": [
        {
          "attributes": {
            "NORMAL": 4,
            "POSITION": 3
          },
          "indices": 5,
          "material": 6,
          "mode": 4
        }
      ]
    },
    {
      "name": "Mossberg 500.001_2",
      "primitives": [
        {
          "attributes": {
            "NORMAL": 7,
            "POSITION": 6
          },
          "indices": 8,
          "material": 7,
          "mode": 4
        }
      ]
    },
    {
      "name": "Mossberg 500.001_3",
      "primitives": [
        {
          "attributes": {
            "NORMAL": 10,
            "POSITION": 9
          },
          "indices": 11,
          "material": 8,
          "mode": 4
        }
      ]
    },
    {
      "name": "Mossberg 500.001_4",
      "primitives": [
        {
          "attributes": {
            "NORMAL": 13,
            "POSITION": 12
          },
          "indices": 14,
          "material": 9,
          "mode": 4
        }
      ]
    },
    {
      "name": "Mossberg 500_0",
      "primitives": [
        {
          "attributes": {
            "NORMAL": 16,
            "POSITION": 15
          },
          "indices": 17,
          "material": 0,
          "mode": 4
        }
      ]
    },
    {
      "name": "Mossberg 500_1",
      "primitives": [
        {
          "attributes": {
            "NORMAL": 19,
            "POSITION": 18
          },
          "indices": 20,
          "material": 1,
          "mode": 4
        }
      ]
    },
    {
      "name": "Mossberg 500_2",
      "primitives": [
        {
          "attributes": {
            "NORMAL": 22,
            "POSITION": 21
          },
          "indices": 23,
          "material": 2,
          "mode": 4
        }
      ]
    },
    {
      "name": "Mossberg 500_3",
      "primitives": [
        {
          "attributes": {
            "NORMAL": 25,
            "POSITION": 24
          },
          "indices": 26,
          "material": 3,
          "mode": 4
        }
      ]
    },
    {
      "name": "Mossberg 500_4",
      "primitives": [
        {
          "attributes": {
            "NORMAL": 28,
            "POSITION": 27
          },
          "indices": 29,
          "material": 4,
          "mode": 4
        }
      ]
    }
  ],
  "nodes": [
    {
      "children": [
        1
      ],
      "matrix": [
        1.0,
        0.0,
        0.0,
        0.0,
        0.0,
        2.220446049250313e-16,
        -1.0,
        0.0,
        0.0,
        1.0,
        2.220446049250313e-16,
        0.0,
        0.0,
        0.0,
        0.0,
        1.0
      ],
      "name": "Sketchfab_model"
    },
    {
      "children": [
        2,
        8,
        10
      ],
      "name": "Root"
    },
    {
      "children": [
        3,
        4,
        5,
        6,
        7
      ],
      "matrix": [
        1.0,
        0.0,
        0.0,
        0.0,
        0.0,
        1.0,
        0.0,
        0.0,
        0.0,
        0.0,
        1.0,
        0.0,
        -0.017860000000000004,
        -1.4028899999999997,
        0.60246,
        1.0
      ],
      "name": "Mossberg 500.001"
    },
    {
      "mesh": 0,
      "name": "Mossberg 500.001_0"
    },
    {
      "mesh": 1,
      "name": "Mossberg 500.001_1"
    },
    {
      "mesh": 2,
      "name": "Mossberg 500.001_2"
    },
    {
      "mesh": 3,
      "name": "Mossberg 500.001_3"
    },
    {
      "mesh": 4,
      "name": "Mossberg 500.001_4"
    },
    {
      "children": [
        9
      ],
      "matrix": [
        -0.29086000000000006,
        0.9551700000000001,
        -0.05519000000000001,
        0.0,
        -0.7711,
        -0.19988000000000003,
        0.6045200000000001,
        0.0,
        0.5663900000000001,
        0.21839000000000003,
        0.7946700000000001,
        0.0,
        4.076250000000001,
        1.00545,
        5.903860000000001,
        1.0
      ],
      "name": "Lamp"
    },
    {
      "name": "Lamp"
    },
    {
      "children": [
        11,
        12,
        13,
        14,
        15
      ],
      "matrix": [
        1.0,
        0.0,
        0.0,
        0.0,
        0.0,
        1.0,
        0.0,
        0.0,
        0.0,
        0.0,
        1.0,
        0.0,
        0.0,
        0.0,
        2.54608,
        1.0
      ],
      "name": "Mossberg 500"
    },
    {
      "mesh": 5,
      "name": "Mossberg 500_0"
    },
    {
      "mesh": 6,
      "name": "Mossberg 500_1"
    },
    {
      "mesh": 7,
      "name": "Mossberg 500_2"
    },
    {
      "mesh": 8,
      "name": "Mossberg 500_3"
    },
    {
      "mesh": 9,
      "name": "Mossberg 500_4"
    }
  ],
  "scene": 0,
  "scenes": [
    {
      "name": "Sketchfab_Scene",
      "nodes": [
        0
      ]
    }
  ]
}
