{
    "asset" : {
        "generator" : "Khronos glTF Blender I/O v1.6.16",
        "version" : "2.0"
    },
    "scene" : 0,
    "scenes" : [
        {
            "name" : "Scene",
            "nodes" : [
                16
            ]
        }
    ],
    "nodes" : [
        {
            "name" : "Lamp.001"
        },
        {
            "children" : [
                0
            ],
            "name" : "Lamp",
            "rotation" : [
                0.16907447576522827,
                0.27217063307762146,
                0.7558797597885132,
                0.5709490180015564
            ],
            "scale" : [
                0.9999975562095642,
                0.9999958276748657,
                0.9999960660934448
            ],
            "translation" : [
                4.076250076293945,
                1.0054500102996826,
                5.903860092163086
            ]
        },
        {
            "mesh" : 0,
            "name" : "Mossberg 500_0"
        },
        {
            "mesh" : 1,
            "name" : "Mossberg 500_1"
        },
        {
            "mesh" : 2,
            "name" : "Mossberg 500_2"
        },
        {
            "mesh" : 3,
            "name" : "Mossberg 500_2.001"
        },
        {
            "mesh" : 4,
            "name" : "Mossberg 500_3"
        },
        {
            "mesh" : 5,
            "name" : "Mossberg 500_4"
        },
        {
            "children" : [
                2,
                3,
                4,
                5,
                6,
                7
            ],
            "name" : "Mossberg 500",
            "translation" : [
                0,
                0,
                2.5460801124572754
            ]
        },
        {
            "mesh" : 6,
            "name" : "Mossberg 500.001_0"
        },
        {
            "mesh" : 7,
            "name" : "Mossberg 500.001_1"
        },
        {
            "mesh" : 8,
            "name" : "Mossberg 500.001_2"
        },
        {
            "mesh" : 9,
            "name" : "Mossberg 500.001_3"
        },
        {
            "mesh" : 10,
            "name" : "Mossberg 500.001_4"
        },
        {
            "children" : [
                9,
                10,
                11,
                12,
                13
            ],
            "name" : "Mossberg 500.001",
            "translation" : [
                -0.01785999909043312,
                -1.4028899669647217,
                0.6024600267410278
            ]
        },
        {
            "children" : [
                1,
                8,
                14
            ],
            "name" : "Root"
        },
        {
            "children" : [
                15
            ],
            "name" : "Sketchfab_model",
            "rotation" : [
                -0.7071068286895752,
                0,
                0,
                0.7071068286895752
            ]
        }
    ],
    "materials" : [
        {
            "doubleSided" : true,
            "name" : "Material.001",
            "pbrMetallicRoughness" : {
                "baseColorFactor" : [
                    0.6151760816574097,
                    0.6151760816574097,
                    0.6151760816574097,
                    1
                ],
                "metallicFactor" : 0,
                "roughnessFactor" : 0.6000000238418579
            }
        },
        {
            "doubleSided" : true,
            "name" : "Material.002",
            "pbrMetallicRoughness" : {
                "baseColorFactor" : [
                    0.09083721041679382,
                    0.09083721041679382,
                    0.09083721041679382,
                    1
                ],
                "metallicFactor" : 0,
                "roughnessFactor" : 0.6000000238418579
            }
        },
        {
            "doubleSided" : true,
            "name" : "Material.003",
            "pbrMetallicRoughness" : {
                "baseColorFactor" : [
                    0.04696119576692581,
                    0.04696119576692581,
                    0.04696119576692581,
                    1
                ],
                "metallicFactor" : 0,
                "roughnessFactor" : 0.6000000238418579
            }
        },
        {
            "doubleSided" : true,
            "name" : "Material.004",
            "pbrMetallicRoughness" : {
                "baseColorFactor" : [
                    0.35883867740631104,
                    0.35883867740631104,
                    0.35883867740631104,
                    1
                ],
                "metallicFactor" : 0,
                "roughnessFactor" : 0.6000000238418579
            }
        },
        {
            "doubleSided" : true,
            "name" : "Material.010",
            "pbrMetallicRoughness" : {
                "baseColorFactor" : [
                    0.42922443151474,
                    0.42922443151474,
                    0.42922443151474,
                    1
                ],
                "metallicFactor" : 0,
                "roughnessFactor" : 0.6000000238418579
            }
        },
        {
            "doubleSided" : true,
            "name" : "Material.009",
            "pbrMetallicRoughness" : {
                "baseColorFactor" : [
                    0.6151760816574097,
                    0.6151760816574097,
                    0.6151760816574097,
                    1
                ],
                "metallicFactor" : 0,
                "roughnessFactor" : 0.6000000238418579
            }
        },
        {
            "doubleSided" : true,
            "name" : "Material.008",
            "pbrMetallicRoughness" : {
                "baseColorFactor" : [
                    0.09083721041679382,
                    0.09083721041679382,
                    0.09083721041679382,
                    1
                ],
                "metallicFactor" : 0,
                "roughnessFactor" : 0.6000000238418579
            }
        },
        {
            "doubleSided" : true,
            "name" : "Material.007",
            "pbrMetallicRoughness" : {
                "baseColorFactor" : [
                    0.04696119576692581,
                    0.04696119576692581,
                    0.04696119576692581,
                    1
                ],
                "metallicFactor" : 0,
                "roughnessFactor" : 0.6000000238418579
            }
        },
        {
            "doubleSided" : true,
            "name" : "Material.006",
            "pbrMetallicRoughness" : {
                "baseColorFactor" : [
                    0.35883867740631104,
                    0.35883867740631104,
                    0.35883867740631104,
                    1
                ],
                "metallicFactor" : 0,
                "roughnessFactor" : 0.6000000238418579
            }
        },
        {
            "doubleSided" : true,
            "name" : "Material.005",
            "pbrMetallicRoughness" : {
                "baseColorFactor" : [
                    0.42922443151474,
                    0.42922443151474,
                    0.42922443151474,
                    1
                ],
                "metallicFactor" : 0,
                "roughnessFactor" : 0.6000000238418579
            }
        }
    ],
    "meshes" : [
        {
            "name" : "Mossberg 500_0",
            "primitives" : [
                {
                    "attributes" : {
                        "POSITION" : 0,
                        "NORMAL" : 1
                    },
                    "indices" : 2,
                    "material" : 0
                }
            ]
        },
        {
            "name" : "Mossberg 500_1",
            "primitives" : [
                {
                    "attributes" : {
                        "POSITION" : 3,
                        "NORMAL" : 4
                    },
                    "indices" : 5,
                    "material" : 1
                }
            ]
        },
        {
            "name" : "Mossberg 500_2",
            "primitives" : [
                {
                    "attributes" : {
                        "POSITION" : 6,
                        "NORMAL" : 7
                    },
                    "indices" : 8,
                    "material" : 2
                }
            ]
        },
        {
            "name" : "Mossberg 500_2.001",
            "primitives" : [
                {
                    "attributes" : {
                        "POSITION" : 9,
                        "NORMAL" : 10
                    },
                    "indices" : 11,
                    "material" : 2
                }
            ]
        },
        {
            "name" : "Mossberg 500_3",
            "primitives" : [
                {
                    "attributes" : {
                        "POSITION" : 12,
                        "NORMAL" : 13
                    },
                    "indices" : 14,
                    "material" : 3
                }
            ]
        },
        {
            "name" : "Mossberg 500_4",
            "primitives" : [
                {
                    "attributes" : {
                        "POSITION" : 15,
                        "NORMAL" : 16
                    },
                    "indices" : 17,
                    "material" : 4
                }
            ]
        },
        {
            "name" : "Mossberg 500.001_0",
            "primitives" : [
                {
                    "attributes" : {
                        "POSITION" : 18,
                        "NORMAL" : 19
                    },
                    "indices" : 20,
                    "material" : 5
                }
            ]
        },
        {
            "name" : "Mossberg 500.001_1",
            "primitives" : [
                {
                    "attributes" : {
                        "POSITION" : 21,
                        "NORMAL" : 22
                    },
                    "indices" : 5,
                    "material" : 6
                }
            ]
        },
        {
            "name" : "Mossberg 500.001_2",
            "primitives" : [
                {
                    "attributes" : {
                        "POSITION" : 23,
                        "NORMAL" : 24
                    },
                    "indices" : 25,
                    "material" : 7
                }
            ]
        },
        {
            "name" : "Mossberg 500.001_3",
            "primitives" : [
                {
                    "attributes" : {
                        "POSITION" : 26,
                        "NORMAL" : 27
                    },
                    "indices" : 14,
                    "material" : 8
                }
            ]
        },
        {
            "name" : "Mossberg 500.001_4",
            "primitives" : [
                {
                    "attributes" : {
                        "POSITION" : 28,
                        "NORMAL" : 29
                    },
                    "indices" : 17,
                    "material" : 9
                }
            ]
        }
    ],
    "accessors" : [
        {
            "bufferView" : 0,
            "componentType" : 5126,
            "count" : 1266,
            "max" : [
                0.16200000047683716,
                4.863269805908203,
                0.2704299986362457
            ],
            "min" : [
                -0.16200000047683716,
                -1.8007800579071045,
                -0.5087699890136719
            ],
            "type" : "VEC3"
        },
        {
            "bufferView" : 1,
            "componentType" : 5126,
            "count" : 1266,
            "type" : "VEC3"
        },
        {
            "bufferView" : 2,
            "componentType" : 5123,
            "count" : 1542,
            "type" : "SCALAR"
        },
        {
            "bufferView" : 3,
            "componentType" : 5126,
            "count" : 244,
            "max" : [
                0.05164000019431114,
                -0.7867400050163269,
                -0.25714001059532166
            ],
            "min" : [
                -0.05164000019431114,
                -1.496250033378601,
                -0.5695300102233887
            ],
            "type" : "VEC3"
        },
        {
            "bufferView" : 4,
            "componentType" : 5126,
            "count" : 244,
            "type" : "VEC3"
        },
        {
            "bufferView" : 5,
            "componentType" : 5123,
            "count" : 276,
            "type" : "SCALAR"
        },
        {
            "bufferView" : 6,
            "componentType" : 5126,
            "count" : 580,
            "max" : [
                0.12685999274253845,
                -1.6906700134277344,
                0.10525999963283539
            ],
            "min" : [
                -0.12687000632286072,
                -4.797689914703369,
                -1.4947999715805054
            ],
            "type" : "VEC3"
        },
        {
            "bufferView" : 7,
            "componentType" : 5126,
            "count" : 580,
            "type" : "VEC3"
        },
        {
            "bufferView" : 8,
            "componentType" : 5123,
            "count" : 612,
            "type" : "SCALAR"
        },
        {
            "bufferView" : 9,
            "componentType" : 5126,
            "count" : 44,
            "max" : [
                0.18605999648571014,
                2.926919937133789,
                0.07199999690055847
            ],
            "min" : [
                -0.18605999648571014,
                1.0952399969100952,
                -0.3576900064945221
            ],
            "type" : "VEC3"
        },
        {
            "bufferView" : 10,
            "componentType" : 5126,
            "count" : 44,
            "type" : "VEC3"
        },
        {
            "bufferView" : 11,
            "componentType" : 5123,
            "count" : 60,
            "type" : "SCALAR"
        },
        {
            "bufferView" : 12,
            "componentType" : 5126,
            "count" : 251,
            "max" : [
                0.11604999750852585,
                1.0420500040054321,
                0.22583000361919403
            ],
            "min" : [
                -0.11604999750852585,
                -0.7778000235557556,
                -0.08873999863862991
            ],
            "type" : "VEC3"
        },
        {
            "bufferView" : 13,
            "componentType" : 5126,
            "count" : 251,
            "type" : "VEC3"
        },
        {
            "bufferView" : 14,
            "componentType" : 5123,
            "count" : 420,
            "type" : "SCALAR"
        },
        {
            "bufferView" : 15,
            "componentType" : 5126,
            "count" : 28,
            "max" : [
                0.10750000178813934,
                -0.0707399994134903,
                0.16040000319480896
            ],
            "min" : [
                0.037450000643730164,
                -0.26183998584747314,
                0.10822000354528427
            ],
            "type" : "VEC3"
        },
        {
            "bufferView" : 16,
            "componentType" : 5126,
            "count" : 28,
            "type" : "VEC3"
        },
        {
            "bufferView" : 17,
            "componentType" : 5123,
            "count" : 36,
            "type" : "SCALAR"
        },
        {
            "bufferView" : 18,
            "componentType" : 5126,
            "count" : 5677,
            "max" : [
                0.16200000047683716,
                3.6659300327301025,
                0.3081499934196472
            ],
            "min" : [
                -0.16200000047683716,
                -1.8007800579071045,
                -0.5087699890136719
            ],
            "type" : "VEC3"
        },
        {
            "bufferView" : 19,
            "componentType" : 5126,
            "count" : 5677,
            "type" : "VEC3"
        },
        {
            "bufferView" : 20,
            "componentType" : 5123,
            "count" : 6330,
            "type" : "SCALAR"
        },
        {
            "bufferView" : 21,
            "componentType" : 5126,
            "count" : 244,
            "max" : [
                0.05164000019431114,
                -0.7867400050163269,
                -0.25714001059532166
            ],
            "min" : [
                -0.05164000019431114,
                -1.496250033378601,
                -0.5695300102233887
            ],
            "type" : "VEC3"
        },
        {
            "bufferView" : 22,
            "componentType" : 5126,
            "count" : 244,
            "type" : "VEC3"
        },
        {
            "bufferView" : 23,
            "componentType" : 5126,
            "count" : 586,
            "max" : [
                0.18605999648571014,
                2.926919937133789,
                0.1042499989271164
            ],
            "min" : [
                -0.18605999648571014,
                -2.2327499389648438,
                -1.071720004081726
            ],
            "type" : "VEC3"
        },
        {
            "bufferView" : 24,
            "componentType" : 5126,
            "count" : 586,
            "type" : "VEC3"
        },
        {
            "bufferView" : 25,
            "componentType" : 5123,
            "count" : 636,
            "type" : "SCALAR"
        },
        {
            "bufferView" : 26,
            "componentType" : 5126,
            "count" : 251,
            "max" : [
                0.11604999750852585,
                1.0420500040054321,
                0.22583000361919403
            ],
            "min" : [
                -0.11604999750852585,
                -0.7778000235557556,
                -0.08873999863862991
            ],
            "type" : "VEC3"
        },
        {
            "bufferView" : 27,
            "componentType" : 5126,
            "count" : 251,
            "type" : "VEC3"
        },
        {
            "bufferView" : 28,
            "componentType" : 5126,
            "count" : 28,
            "max" : [
                0.10750000178813934,
                -0.0707399994134903,
                0.16040000319480896
            ],
            "min" : [
                0.037450000643730164,
                -0.26183998584747314,
                0.10822000354528427
            ],
            "type" : "VEC3"
        },
        {
            "bufferView" : 29,
            "componentType" : 5126,
            "count" : 28,
            "type" : "VEC3"
        }
    ],
    "bufferViews" : [
        {
            "buffer" : 0,
            "byteLength" : 15192,
            "byteOffset" : 0
        },
        {
            "buffer" : 0,
            "byteLength" : 15192,
            "byteOffset" : 15192
        },
        {
            "buffer" : 0,
            "byteLength" : 3084,
            "byteOffset" : 30384
        },
        {
            "buffer" : 0,
            "byteLength" : 2928,
            "byteOffset" : 33468
        },
        {
            "buffer" : 0,
            "byteLength" : 2928,
            "byteOffset" : 36396
        },
        {
            "buffer" : 0,
            "byteLength" : 552,
            "byteOffset" : 39324
        },
        {
            "buffer" : 0,
            "byteLength" : 6960,
            "byteOffset" : 39876
        },
        {
            "buffer" : 0,
            "byteLength" : 6960,
            "byteOffset" : 46836
        },
        {
            "buffer" : 0,
            "byteLength" : 1224,
            "byteOffset" : 53796
        },
        {
            "buffer" : 0,
            "byteLength" : 528,
            "byteOffset" : 55020
        },
        {
            "buffer" : 0,
            "byteLength" : 528,
            "byteOffset" : 55548
        },
        {
            "buffer" : 0,
            "byteLength" : 120,
            "byteOffset" : 56076
        },
        {
            "buffer" : 0,
            "byteLength" : 3012,
            "byteOffset" : 56196
        },
        {
            "buffer" : 0,
            "byteLength" : 3012,
            "byteOffset" : 59208
        },
        {
            "buffer" : 0,
            "byteLength" : 840,
            "byteOffset" : 62220
        },
        {
            "buffer" : 0,
            "byteLength" : 336,
            "byteOffset" : 63060
        },
        {
            "buffer" : 0,
            "byteLength" : 336,
            "byteOffset" : 63396
        },
        {
            "buffer" : 0,
            "byteLength" : 72,
            "byteOffset" : 63732
        },
        {
            "buffer" : 0,
            "byteLength" : 68124,
            "byteOffset" : 63804
        },
        {
            "buffer" : 0,
            "byteLength" : 68124,
            "byteOffset" : 131928
        },
        {
            "buffer" : 0,
            "byteLength" : 12660,
            "byteOffset" : 200052
        },
        {
            "buffer" : 0,
            "byteLength" : 2928,
            "byteOffset" : 212712
        },
        {
            "buffer" : 0,
            "byteLength" : 2928,
            "byteOffset" : 215640
        },
        {
            "buffer" : 0,
            "byteLength" : 7032,
            "byteOffset" : 218568
        },
        {
            "buffer" : 0,
            "byteLength" : 7032,
            "byteOffset" : 225600
        },
        {
            "buffer" : 0,
            "byteLength" : 1272,
            "byteOffset" : 232632
        },
        {
            "buffer" : 0,
            "byteLength" : 3012,
            "byteOffset" : 233904
        },
        {
            "buffer" : 0,
            "byteLength" : 3012,
            "byteOffset" : 236916
        },
        {
            "buffer" : 0,
            "byteLength" : 336,
            "byteOffset" : 239928
        },
        {
            "buffer" : 0,
            "byteLength" : 336,
            "byteOffset" : 240264
        }
    ],
    "buffers" : [
        {
            "byteLength" : 240600,
            "uri" : "data:application/octet-stream;base64,"
        }
    ]
}
