{
  "accessors": [
    {
      "bufferView": 2,
      "componentType": 5126,
      "count": 7240,
      "max": [
        49.976802825927734,
        7.615299701690674,
        3.466911554336548
      ],
      "min": [
        -24.691959381103516,
        -6.173659324645996,
        -1.117059588432312
      ],
      "type": "VEC3"
    },
    {
      "bufferView": 2,
      "byteOffset": 86880,
      "componentType": 5126,
      "count": 7240,
      "max": [
        0.9999945759773254,
        0.9999966621398926,
        1.0
      ],
      "min": [
        -1.0,
        -0.9999917149543762,
        -1.0
      ],
      "type": "VEC3"
    },
    {
      "bufferView": 1,
      "componentType": 5126,
      "count": 7240,
      "max": [
        1.0,
        1.0080952644348145
      ],
      "min": [
        0.0,
        0.0
      ],
      "type": "VEC2"
    },
    {
      "bufferView": 0,
      "componentType": 5125,
      "count": 19458,
      "type": "SCALAR"
    },
    {
      "bufferView": 2,
      "byteOffset": 173760,
      "componentType": 5126,
      "count": 507,
      "max": [
        23.91168975830078,
        6.090735912322998,
        1.1568553447723389
      ],
      "min": [
        -27.739953994750977,
        -11.753034591674805,
        -1.2436929941177368
      ],
      "type": "VEC3"
    },
    {
      "bufferView": 2,
      "byteOffset": 179844,
      "componentType": 5126,
      "count": 507,
      "max": [
        0.9999939799308777,
        0.9999985694885254,
        1.0
      ],
      "min": [
        -0.999997079372406,
        -0.9999999403953552,
        -1.0
      ],
      "type": "VEC3"
    },
    {
      "bufferView": 1,
      "byteOffset": 57920,
      "componentType": 5126,
      "count": 507,
      "max": [
        0.625,
        0.7500001192092896
      ],
      "min": [
        0.0,
        0.0
      ],
      "type": "VEC2"
    },
    {
      "bufferView": 0,
      "byteOffset": 77832,
      "componentType": 5125,
      "count": 1512,
      "type": "SCALAR"
    },
    {
      "bufferView": 2,
      "byteOffset": 185928,
      "componentType": 5126,
      "count": 1064,
      "max": [
        3.845120906829834,
        5.542098522186279,
        3.466911792755127
      ],
      "min": [
        -24.691959381103516,
        -4.065955638885498,
        -1.117059588432312
      ],
      "type": "VEC3"
    },
    {
      "bufferView": 2,
      "byteOffset": 198696,
      "componentType": 5126,
      "count": 1064,
      "max": [
        0.6738224625587463,
        0.9380258917808533,
        1.0
      ],
      "min": [
        -0.9993191361427307,
        -8.366664587811101e-06,
        -1.0
      ],
      "type": "VEC3"
    },
    {
      "bufferView": 1,
      "byteOffset": 61976,
      "componentType": 5126,
      "count": 1064,
      "max": [
        0.9900000095367432,
        1.0
      ],
      "min": [
        0.009999781847000122,
        0.009999975562095642
      ],
      "type": "VEC2"
    },
    {
      "bufferView": 0,
      "byteOffset": 83880,
      "componentType": 5125,
      "count": 1650,
      "type": "SCALAR"
    },
    {
      "bufferView": 2,
      "byteOffset": 211464,
      "componentType": 5126,
      "count": 560,
      "max": [
        42.685325622558594,
        4.495432376861572,
        1.2043074369430542
      ],
      "min": [
        -24.337085723876953,
        -3.6856460571289063,
        -0.9980930089950562
      ],
      "type": "VEC3"
    },
    {
      "bufferView": 2,
      "byteOffset": 218184,
      "componentType": 5126,
      "count": 560,
      "max": [
        0.0331866554915905,
        0.03318566083908081,
        1.0
      ],
      "min": [
        -0.03318497911095619,
        -0.9996973872184753,
        -1.0
      ],
      "type": "VEC3"
    },
    {
      "bufferView": 1,
      "byteOffset": 70488,
      "componentType": 5126,
      "count": 560,
      "max": [
        1.0,
        1.0
      ],
      "min": [
        0.0,
        0.01000000536441803
      ],
      "type": "VEC2"
    },
    {
      "bufferView": 0,
      "byteOffset": 90480,
      "componentType": 5125,
      "count": 846,
      "type": "SCALAR"
    },
    {
      "bufferView": 2,
      "byteOffset": 224904,
      "componentType": 5126,
      "count": 144,
      "max": [
        4.815451622009277,
        0.8899409770965576,
        0.9807600378990173
      ],
      "min": [
        -4.81760835647583,
        -1.1100590229034424,
        -1.0081377029418945
      ],
      "type": "VEC3"
    },
    {
      "bufferView": 2,
      "byteOffset": 226632,
      "componentType": 5126,
      "count": 144,
      "max": [
        1.0,
        1.0,
        1.0
      ],
      "min": [
        -1.0,
        -1.0,
        -1.0
      ],
      "type": "VEC3"
    },
    {
      "bufferView": 1,
      "byteOffset": 74968,
      "componentType": 5126,
      "count": 144,
      "max": [
        0.875,
        1.0
      ],
      "min": [
        0.125,
        0.0
      ],
      "type": "VEC2"
    },
    {
      "bufferView": 0,
      "byteOffset": 93864,
      "componentType": 5125,
      "count": 264,
      "type": "SCALAR"
    },
    {
      "bufferView": 2,
      "byteOffset": 228360,
      "componentType": 5126,
      "count": 734,
      "max": [
        3.443671464920044,
        1.0,
        4.063494682312012
      ],
      "min": [
        -5.126478672027588,
        -27.54729652404785,
        -4.063477516174316
      ],
      "type": "VEC3"
    },
    {
      "bufferView": 2,
      "byteOffset": 237168,
      "componentType": 5126,
      "count": 734,
      "max": [
        1.0,
        1.0,
        1.0
      ],
      "min": [
        -1.0,
        -1.0,
        -1.0
      ],
      "type": "VEC3"
    },
    {
      "bufferView": 1,
      "byteOffset": 76120,
      "componentType": 5126,
      "count": 734,
      "max": [
        1.0,
        1.0
      ],
      "min": [
        0.0,
        0.0
      ],
      "type": "VEC2"
    },
    {
      "bufferView": 0,
      "byteOffset": 94920,
      "componentType": 5125,
      "count": 1158,
      "type": "SCALAR"
    },
    {
      "bufferView": 2,
      "byteOffset": 245976,
      "componentType": 5126,
      "count": 530,
      "max": [
        3.2315921783447266,
        -24.972267150878906,
        3.23158860206604
      ],
      "min": [
        -3.231585741043091,
        -118.89537811279297,
        -3.2315893173217773
      ],
      "type": "VEC3"
    },
    {
      "bufferView": 2,
      "byteOffset": 252336,
      "componentType": 5126,
      "count": 530,
      "max": [
        1.0,
        1.0,
        1.0
      ],
      "min": [
        -0.9999452233314514,
        -1.0,
        -1.0
      ],
      "type": "VEC3"
    },
    {
      "bufferView": 1,
      "byteOffset": 81992,
      "componentType": 5126,
      "count": 530,
      "max": [
        1.0,
        0.5815969109535217
      ],
      "min": [
        0.0,
        0.01000000536441803
      ],
      "type": "VEC2"
    },
    {
      "bufferView": 0,
      "byteOffset": 99552,
      "componentType": 5125,
      "count": 1002,
      "type": "SCALAR"
    },
    {
      "bufferView": 2,
      "byteOffset": 258696,
      "componentType": 5126,
      "count": 2602,
      "max": [
        23.299909591674805,
        6.984807968139648,
        2.7780508995056152
      ],
      "min": [
        -17.55376434326172,
        -51.881256103515625,
        -2.783384084701538
      ],
      "type": "VEC3"
    },
    {
      "bufferView": 2,
      "byteOffset": 289920,
      "componentType": 5126,
      "count": 2602,
      "max": [
        1.0,
        1.0,
        1.0
      ],
      "min": [
        -0.9999909400939941,
        -1.0,
        -1.0
      ],
      "type": "VEC3"
    },
    {
      "bufferView": 1,
      "byteOffset": 86232,
      "componentType": 5126,
      "count": 2602,
      "max": [
        1.0,
        1.0
      ],
      "min": [
        0.0,
        0.0
      ],
      "type": "VEC2"
    },
    {
      "bufferView": 0,
      "byteOffset": 103560,
      "componentType": 5125,
      "count": 4266,
      "type": "SCALAR"
    },
    {
      "bufferView": 2,
      "byteOffset": 321144,
      "componentType": 5126,
      "count": 1626,
      "max": [
        21.42235565185547,
        -2.542059898376465,
        2.566254138946533
      ],
      "min": [
        -10.547687530517578,
        -51.119319915771484,
        -2.566253900527954
      ],
      "type": "VEC3"
    },
    {
      "bufferView": 2,
      "byteOffset": 340656,
      "componentType": 5126,
      "count": 1626,
      "max": [
        0.9987033009529114,
        0.9999969601631165,
        1.0
      ],
      "min": [
        -0.995730459690094,
        -0.9999969601631165,
        -1.0
      ],
      "type": "VEC3"
    },
    {
      "bufferView": 1,
      "byteOffset": 107048,
      "componentType": 5126,
      "count": 1626,
      "max": [
        0.875,
        1.0
      ],
      "min": [
        0.125,
        0.0
      ],
      "type": "VEC2"
    },
    {
      "bufferView": 0,
      "byteOffset": 120624,
      "componentType": 5125,
      "count": 2442,
      "type": "SCALAR"
    },
    {
      "bufferView": 2,
      "byteOffset": 360168,
      "componentType": 5126,
      "count": 1520,
      "max": [
        1.0,
        1.1889054775238037,
        6.760268211364746
      ],
      "min": [
        -16.148075103759766,
        -1.1889054775238037,
        -1.0
      ],
      "type": "VEC3"
    },
    {
      "bufferView": 2,
      "byteOffset": 378408,
      "componentType": 5126,
      "count": 1520,
      "max": [
        0.9983528256416321,
        1.0,
        0.9974359273910522
      ],
      "min": [
        -0.9998335838317871,
        -1.0,
        -0.997600257396698
      ],
      "type": "VEC3"
    },
    {
      "bufferView": 1,
      "byteOffset": 120056,
      "componentType": 5126,
      "count": 1520,
      "max": [
        1.0,
        1.0
      ],
      "min": [
        0.0,
        0.0
      ],
      "type": "VEC2"
    },
    {
      "bufferView": 0,
      "byteOffset": 130392,
      "componentType": 5125,
      "count": 2898,
      "type": "SCALAR"
    },
    {
      "bufferView": 2,
      "byteOffset": 396648,
      "componentType": 5126,
      "count": 204,
      "max": [
        1.0,
        1.1889054775238037,
        1.0
      ],
      "min": [
        -1.0,
        -1.102009654045105,
        -1.0
      ],
      "type": "VEC3"
    },
    {
      "bufferView": 2,
      "byteOffset": 399096,
      "componentType": 5126,
      "count": 204,
      "max": [
        0.0,
        1.0,
        -0.0
      ],
      "min": [
        0.0,
        -1.0,
        -0.0
      ],
      "type": "VEC3"
    },
    {
      "bufferView": 1,
      "byteOffset": 132216,
      "componentType": 5126,
      "count": 204,
      "max": [
        0.49000000953674316,
        0.49000000953674316
      ],
      "min": [
        0.01000000536441803,
        0.01000000536441803
      ],
      "type": "VEC2"
    },
    {
      "bufferView": 0,
      "byteOffset": 141984,
      "componentType": 5125,
      "count": 576,
      "type": "SCALAR"
    },
    {
      "bufferView": 2,
      "byteOffset": 401544,
      "componentType": 5126,
      "count": 130,
      "max": [
        1.0,
        1.0900830030441284,
        1.6669447422027588
      ],
      "min": [
        -15.426019668579102,
        -1.1889054775238037,
        -1.0
      ],
      "type": "VEC3"
    },
    {
      "bufferView": 2,
      "byteOffset": 403104,
      "componentType": 5126,
      "count": 130,
      "max": [
        0.0,
        1.0,
        -0.0
      ],
      "min": [
        -5.397262370365752e-08,
        -1.0,
        -0.0
      ],
      "type": "VEC3"
    },
    {
      "bufferView": 1,
      "byteOffset": 133848,
      "componentType": 5126,
      "count": 130,
      "max": [
        0.49000000953674316,
        0.49000000953674316
      ],
      "min": [
        0.01000000536441803,
        0.01000000536441803
      ],
      "type": "VEC2"
    },
    {
      "bufferView": 0,
      "byteOffset": 144288,
      "componentType": 5125,
      "count": 372,
      "type": "SCALAR"
    }
  ],
  "asset": {
    "extras": {
      "author": "eninbolshevik1918 (https://sketchfab.com/eninbolshevik1918)",
      "license": "CC-BY-4.0 (http://creativecommons.org/licenses/by/4.0/)",
      "source": "https://sketchfab.com/3d-models/type-56-1-low-poly-39af2dd81b6549b9905b03f4a192edd8",
      "title": "TYPE-56-1 LOW POLY"
    },
    "generator": "Sketchfab-10.72.0",
    "version": "2.0"
  },
  "bufferViews": [
    {
      "buffer": 0,
      "byteLength": 145776,
      "name": "floatBufferViews",
      "target": 34963
    },
    {
      "buffer": 0,
      "byteLength": 134888,
      "byteOffset": 145776,
      "byteStride": 8,
      "name": "floatBufferViews",
      "target": 34962
    },
    {
      "buffer": 0,
      "byteLength": 404664,
      "byteOffset": 280664,
      "byteStride": 12,
      "name": "floatBufferViews",
      "target": 34962
    }
  ],
  "buffers": [
    {
      "byteLength": 685328,
      "uri": "scene.bin"
    }
  ],
  "materials": [
    {
      "doubleSided": true,
      "name": "Material",
      "pbrMetallicRoughness": {
        "baseColorFactor": [
          0.0300741,
          0.0300741,
          0.0300741,
          1.0
        ],
        "metallicFactor": 0.0,
        "roughnessFactor": 0.4
      }
    },
    {
      "doubleSided": true,
      "name": "Material.001",
      "pbrMetallicRoughness": {
        "baseColorFactor": [
          0.233016,
          0.0724902,
          0.00581667,
          1.0
        ],
        "metallicFactor": 0.0,
        "roughnessFactor": 0.5
      }
    },
    {
      "doubleSided": true,
      "name": "Material.002",
      "pbrMetallicRoughness": {
        "baseColorFactor": [
          0.0985041,
          0.0985041,
          0.0985041,
          1.0
        ],
        "metallicFactor": 0.0,
        "roughnessFactor": 0.5
      }
    },
    {
      "doubleSided": true,
      "name": "Material.003",
      "pbrMetallicRoughness": {
        "baseColorFactor": [
          0.0,
          0.0,
          0.0,
          1.0
        ],
        "metallicFactor": 0.0,
        "roughnessFactor": 0.5
      }
    },
    {
      "doubleSided": true,
      "name": "Material.008",
      "pbrMetallicRoughness": {
        "baseColorFactor": [
          0.0374099,
          0.0374099,
          0.0374099,
          1.0
        ],
        "metallicFactor": 0.0,
        "roughnessFactor": 0.4
      }
    },
    {
      "doubleSided": true,
      "name": "Material.004",
      "pbrMetallicRoughness": {
        "baseColorFactor": [
          0.0219793,
          0.0194035,
          0.0198748,
          1.0
        ],
        "metallicFactor": 0.0,
        "roughnessFactor": 0.5
      }
    },
    {
      "doubleSided": true,
      "name": "Material.011",
      "pbrMetallicRoughness": {
        "baseColorFactor": [
          0.132864,
          0.132864,
          0.132864,
          1.0
        ],
        "metallicFactor": 0.0,
        "roughnessFactor": 0.5
      }
    },
    {
      "doubleSided": true,
      "name": "Material.012",
      "pbrMetallicRoughness": {
        "baseColorFactor": [
          0.0699778,
          0.0699778,
          0.0699778,
          1.0
        ],
        "metallicFactor": 0.0,
        "roughnessFactor": 0.4
      }
    },
    {
      "doubleSided": true,
      "name": "Material.010",
      "pbrMetallicRoughness": {
        "baseColorFactor": [
          0.0424227,
          0.0424227,
          0.0424227,
          1.0
        ],
        "metallicFactor": 0.0,
        "roughnessFactor": 0.5
      }
    },
    {
      "doubleSided": true,
      "name": "Material.032",
      "pbrMetallicRoughness": {
        "baseColorFactor": [
          0.0300741,
          0.0300741,
          0.0300741,
          1.0
        ],
        "metallicFactor": 0.0,
        "roughnessFactor": 0.4
      }
    },
    {
      "doubleSided": true,
      "name": "Material.029",
      "pbrMetallicRoughness": {
        "baseColorFactor": [
          0.0,
          0.0,
          0.0,
          1.0
        ],
        "metallicFactor": 0.0,
        "roughnessFactor": 0.5
      }
    },
    {
      "doubleSided": true,
      "name": "Material.028",
      "pbrMetallicRoughness": {
        "baseColorFactor": [
          0.0354805,
          0.0353615,
          0.0374589,
          1.0
        ],
        "metallicFactor": 0.0
      }
    }
  ],
  "meshes": [
    {
      "name": "Object_0",
      "primitives": [
        {
          "attributes": {
            "NORMAL": 1,
            "POSITION": 0,
            "TEXCOORD_0": 2
          },
          "indices": 3,
          "material": 0,
          "mode": 4
        }
      ]
    },
    {
      "name": "Object_1",
      "primitives": [
        {
          "attributes": {
            "NORMAL": 5,
            "POSITION": 4,
            "TEXCOORD_0": 6
          },
          "indices": 7,
          "material": 1,
          "mode": 4
        }
      ]
    },
    {
      "name": "Object_2",
      "primitives": [
        {
          "attributes": {
            "NORMAL": 9,
            "POSITION": 8,
            "TEXCOORD_0": 10
          },
          "indices": 11,
          "material": 2,
          "mode": 4
        }
      ]
    },
    {
      "name": "Object_3",
      "primitives": [
        {
          "attributes": {
            "NORMAL": 13,
            "POSITION": 12,
            "TEXCOORD_0": 14
          },
          "indices": 15,
          "material": 3,
          "mode": 4
        }
      ]
    },
    {
      "name": "Object_4",
      "primitives": [
        {
          "attributes": {
            "NORMAL": 17,
            "POSITION": 16,
            "TEXCOORD_0": 18
          },
          "indices": 19,
          "material": 4,
          "mode": 4
        }
      ]
    },
    {
      "name": "Object_5",
      "primitives": [
        {
          "attributes": {
            "NORMAL": 21,
            "POSITION": 20,
            "TEXCOORD_0": 22
          },
          "indices": 23,
          "material": 5,
          "mode": 4
        }
      ]
    },
    {
      "name": "Object_6",
      "primitives": [
        {
          "attributes": {
            "NORMAL": 25,
            "POSITION": 24,
            "TEXCOORD_0": 26
          },
          "indices": 27,
          "material": 6,
          "mode": 4
        }
      ]
    },
    {
      "name": "Object_7",
      "primitives": [
        {
          "attributes": {
            "NORMAL": 29,
            "POSITION": 28,
            "TEXCOORD_0": 30
          },
          "indices": 31,
          "material": 7,
          "mode": 4
        }
      ]
    },
    {
      "name": "Object_8",
      "primitives": [
        {
          "attributes": {
            "NORMAL": 33,
            "POSITION": 32,
            "TEXCOORD_0": 34
          },
          "indices": 35,
          "material": 8,
          "mode": 4
        }
      ]
    },
    {
      "name": "Object_9",
      "primitives": [
        {
          "attributes": {
            "NORMAL": 37,
            "POSITION": 36,
            "TEXCOORD_0": 38
          },
          "indices": 39,
          "material": 9,
          "mode": 4
        }
      ]
    },
    {
      "name": "Object_10",
      "primitives": [
        {
          "attributes": {
            "NORMAL": 41,
            "POSITION": 40,
            "TEXCOORD_0": 42
          },
          "indices": 43,
          "material": 10,
          "mode": 4
        }
      ]
    },
    {
      "name": "Object_11",
      "primitives": [
        {
          "attributes": {
            "NORMAL": 45,
            "POSITION": 44,
            "TEXCOORD_0": 46
          },
          "indices": 47,
          "material": 11,
          "mode": 4
        }
      ]
    }
  ],
  "nodes": [
    {
      "children": [
        1
      ],
      "matrix": [
        1.0,
        0.0,
        0.0,
        0.0,
        0.0,
        2.220446049250313e-16,
        -1.0,
        0.0,
        0.0,
        1.0,
        2.220446049250313e-16,
        0.0,
        0.0,
        0.0,
        0.0,
        1.0
      ],
      "name": "Sketchfab_model"
    },
    {
      "children": [
        2
      ],
      "name": "root"
    },
    {
      "children": [
        3,
        9,
        12,
        15
      ],
      "matrix": [
        1.0,
        0.0,
        0.0,
        0.0,
        0.0,
        2.220446049250313e-16,
        1.0,
        0.0,
        0.0,
        -1.0,
        2.220446049250313e-16,
        0.0,
        0.0,
        0.0,
        0.0,
        1.0
      ],
      "name": "GLTF_SceneRootNode"
    },
    {
      "children": [
        4,
        5,
        6,
        7,
        8
      ],
      "matrix": [
        0.18813008074388615,
        0.006946291959902912,
        0.0,
        0.0,
        -0.006946291959902912,
        0.18813008074388615,
        0.0,
        0.0,
        0.0,
        0.0,
        0.2739598751068115,
        0.0,
        0.45392757654190063,
        1.7361071109771729,
        0.011895005591213703,
        1.0
      ],
      "name": "senapan_4"
    },
    {
      "mesh": 0,
      "name": "Object_4"
    },
    {
      "mesh": 1,
      "name": "Object_5"
    },
    {
      "mesh": 2,
      "name": "Object_6"
    },
    {
      "mesh": 3,
      "name": "Object_7"
    },
    {
      "mesh": 4,
      "name": "Object_8"
    },
    {
      "children": [
        10,
        11
      ],
      "matrix": [
        1.8204876265567828e-08,
        0.053992386907331685,
        2.16692638581258e-08,
        0.0,
        0.053992386907331685,
        -1.820486757374712e-08,
        -2.1669271164456606e-08,
        0.0,
        -1.7177365309935052e-08,
        1.7177371101710636e-08,
        -0.042800113558762336,
        0.0,
        8.402289390563965,
        1.432564377784729,
        -0.0033366456627845764,
        1.0
      ],
      "name": "bayonate_5"
    },
    {
      "mesh": 5,
      "name": "Object_10"
    },
    {
      "mesh": 6,
      "name": "Object_11"
    },
    {
      "children": [
        13,
        14
      ],
      "matrix": [
        0.07989376854538884,
        0.004434318676403399,
        0.0,
        0.0,
        -0.004434318676403399,
        0.07989376854538884,
        0.0,
        0.0,
        0.0,
        0.0,
        0.0867621898651123,
        0.0,
        0.1882825493812561,
        1.524004340171814,
        0.006591677665710449,
        1.0
      ],
      "name": "Cube.010_6"
    },
    {
      "mesh": 7,
      "name": "Object_13"
    },
    {
      "mesh": 8,
      "name": "Object_14"
    },
    {
      "children": [
        16,
        17,
        18
      ],
      "matrix": [
        0.3708790865150731,
        0.03113796256846142,
        0.0,
        0.0,
        0.0,
        0.0,
        0.3721839189529419,
        0.0,
        0.03113796256846142,
        -0.3708790865150732,
        0.0,
        0.0,
        -3.51239275932312,
        1.7894693613052368,
        0.004357360303401947,
        1.0
      ],
      "name": "POPOR LIPAT.002_7"
    },
    {
      "mesh": 9,
      "name": "Object_16"
    },
    {
      "mesh": 10,
      "name": "Object_17"
    },
    {
      "mesh": 11,
      "name": "Object_18"
    }
  ],
  "scene": 0,
  "scenes": [
    {
      "name": "Sketchfab_Scene",
      "nodes": [
        0
      ]
    }
  ]
}
